<?xml version="1.0" encoding="iso-8859-1"?>
<!-- Generator: Adobe Illustrator 19.0.0, SVG Export Plug-In . SVG Version: 6.00 Build 0)  -->
<svg version="1.1" id="Layer_1" xmlns="http://www.w3.org/2000/svg" xmlns:xlink="http://www.w3.org/1999/xlink" x="0px" y="0px"
	 viewBox="0 0 512 512" style="enable-background:new 0 0 512 512;" xml:space="preserve">
<path style="fill:#05C7F2;" d="M362.359,144.008l-0.001-30.012c-1.984-0.585-4.066-1.276-6.254-1.889
	c-20.026-5.738-62.996-13.632-100.098-13.632c-37.188,0.006-80.234,7.841-100.254,13.585c-2.123,0.585-3.323,1.156-5.29,1.723
	l0.846,27.307v2.917c0,22.306-18.083,40.388-40.388,40.388H66.934c-22.431,0-40.565-18.278-40.388-40.708l0.094-11.817
	c1.064-8.699,3.505-17.617,7.189-26.044c3.592-7.976,7.728-14.917,12.632-21.037c38.93-49.64,99.642-69.888,209.476-69.912
	C407.754,14.9,463.226,81.788,465.575,84.726c5.062,6.414,9.198,13.297,12.633,21.072c3.661,8.359,6.102,17.373,7.143,26.05
	l0.1,11.816c0.189,22.439-17.948,40.728-40.386,40.728h-42.316C380.442,184.394,362.361,166.313,362.359,144.008z"/>
<g>
	<path style="fill:#282828;" d="M445.063,199.27h-42.316c-30.47,0-55.262-24.79-55.263-55.26l-0.001-18.824
		c-19.614-5.037-57.624-11.835-91.474-11.835c-33.398,0.004-70.505,6.492-90.32,11.451l0.491,15.826
		c0.004,0.155,0.007,0.308,0.007,0.461v2.917c0,30.473-24.792,55.263-55.263,55.263H66.936c-14.845,0-28.777-5.803-39.232-16.341
		s-16.146-24.515-16.03-39.36l0.094-11.816c0.004-0.564,0.042-1.128,0.11-1.688c1.238-10.129,4.118-20.572,8.324-30.198
		c0.022-0.051,0.045-0.101,0.067-0.152c4.159-9.232,8.914-17.138,14.537-24.166C76.899,21.913,140.974,0.024,255.935,0
		c65.639,0.01,122.057,11.95,167.691,35.488c35.773,18.45,51.851,37.804,53.568,39.949c5.924,7.508,10.687,15.448,14.62,24.349
		c4.216,9.622,7.082,20.081,8.308,30.29c0.065,0.547,0.1,1.098,0.106,1.648l0.098,11.816c0.125,14.848-5.565,28.834-16.021,39.378
		C473.849,193.462,459.913,199.27,445.063,199.27z M256.005,83.597c40.071,0,84.265,8.497,104.197,14.208
		c1.342,0.376,2.728,0.805,4.074,1.221c0.775,0.241,1.535,0.478,2.28,0.696c6.33,1.862,10.676,7.671,10.676,14.27l0.001,30.012
		c0.001,14.067,11.445,25.51,25.512,25.51h42.316c6.855,0,13.29-2.681,18.116-7.548c4.827-4.867,7.454-11.325,7.396-18.18
		l-0.092-10.949c-0.931-7.105-2.966-14.373-5.901-21.072c-2.89-6.539-6.392-12.386-10.687-17.829
		c-0.07-0.085-13.196-16.2-44.055-32.087c-28.432-14.636-78.212-32.089-153.905-32.1C151.219,29.774,93.922,48.377,58.168,93.967
		c-0.033,0.042-0.065,0.082-0.097,0.123c-4.043,5.044-7.526,10.856-10.644,17.768c-2.939,6.742-4.979,13.988-5.919,21.015
		l-0.086,10.929c-0.055,6.853,2.574,13.306,7.401,18.171c4.826,4.866,11.258,7.544,18.111,7.544h43.988
		c14.068,0,25.512-11.445,25.512-25.512v-2.687l-0.839-27.075c-0.211-6.795,4.211-12.869,10.745-14.754
		c0.602-0.174,1.093-0.356,1.59-0.531c0.976-0.345,2.188-0.774,3.787-1.217C171.578,92.051,215.678,83.605,256.005,83.597z"/>
	<path style="fill:#282828;" d="M429.079,512H82.918c-10.727,0-21.066-4.509-28.365-12.369
		c-7.298-7.862-11.029-18.505-10.236-29.203L59.074,271.56c1.345-18.156,14.824-32.687,32.806-35.407l80.383-13.79l9.695-28.323
		c5.358-15.654,20.075-26.172,36.621-26.172h74.844c16.546,0,31.264,10.519,36.621,26.172l9.695,28.323l80.383,13.79
		c17.982,2.721,31.459,17.251,32.806,35.409l14.757,198.867c0.793,10.697-2.938,21.342-10.236,29.203
		C450.144,507.491,439.806,512,429.079,512z M218.576,197.619c-3.828,0-7.233,2.434-8.473,6.056l-12.552,36.676
		c-1.763,5.148-6.196,8.924-11.56,9.845l-89.244,15.307c-0.122,0.021-0.242,0.04-0.366,0.058c-4.185,0.611-7.325,3.982-7.637,8.198
		l-14.757,198.87c-0.251,3.389,1.376,5.687,2.368,6.757c0.992,1.068,3.166,2.862,6.563,2.862h346.161
		c3.398,0,5.571-1.794,6.563-2.862c0.992-1.07,2.62-3.368,2.368-6.757L423.253,273.76c-0.312-4.217-3.453-7.59-7.637-8.2
		c-0.123-0.018-0.244-0.037-0.366-0.058l-89.244-15.309c-5.363-0.921-9.797-4.696-11.56-9.845l-12.552-36.676
		c-1.241-3.622-4.646-6.056-8.473-6.056h-74.844V197.619z"/>
	<path style="fill:#282828;" d="M255.999,446.441c-49.517,0-89.802-40.285-89.802-89.802s40.285-89.802,89.802-89.802
		c8.214,0,14.876,6.66,14.876,14.876s-6.661,14.876-14.876,14.876c-33.112,0-60.05,26.939-60.05,60.05s26.939,60.05,60.05,60.05
		s60.05-26.939,60.05-60.05c0-13.806-4.553-26.784-13.168-37.527c-5.14-6.41-4.11-15.773,2.3-20.911
		c6.411-5.14,15.771-4.11,20.912,2.3c12.708,15.85,19.707,35.787,19.707,56.138C345.801,406.156,305.516,446.441,255.999,446.441z"
		/>
</g>
<g>
</g>
<g>
</g>
<g>
</g>
<g>
</g>
<g>
</g>
<g>
</g>
<g>
</g>
<g>
</g>
<g>
</g>
<g>
</g>
<g>
</g>
<g>
</g>
<g>
</g>
<g>
</g>
<g>
</g>
</svg>
